<svg width="49" height="48" viewBox="0 0 49 48" fill="none" xmlns="http://www.w3.org/2000/svg">
<g opacity="0.7">
<path fill-rule="evenodd" clip-rule="evenodd" d="M2.34844 22.6211C15.7421 13.6079 31.1254 18.9978 42.4948 28.8846C42.6906 29.0541 42.9873 29.034 43.157 28.8384C43.3264 28.6429 43.3062 28.3461 43.1108 28.1766C31.4233 18.0123 15.5928 12.5774 1.82401 21.8434C1.60922 21.9873 1.55252 22.2788 1.69728 22.4944C1.84125 22.7091 2.13277 22.7658 2.34844 22.6211Z" fill="white"/>
<path fill-rule="evenodd" clip-rule="evenodd" d="M42.5894 28.3449C41.7817 28.1797 40.7702 27.9611 40.6548 27.9396C37.5247 27.3581 34.4722 27.2931 31.3044 27.6719C31.0473 27.7023 30.8634 27.9366 30.8939 28.1937C30.9243 28.4507 31.1586 28.6346 31.4157 28.6042C34.4874 28.2359 37.4478 28.298 40.484 28.8625C40.661 28.8953 42.9344 29.3881 43.4016 29.4532C43.5932 29.4808 43.7101 29.437 43.7365 29.424C43.8805 29.3605 43.9473 29.2598 43.9835 29.1726C44.0235 29.074 44.0496 28.8951 43.9525 28.6826C43.8499 28.4606 43.5257 28.0545 43.452 27.9454C42.3466 26.2958 40.9689 24.5511 40.0249 22.6814C39.1243 20.8984 38.6175 18.9994 39.2022 16.9548C39.2739 16.706 39.1285 16.4459 38.8798 16.3745C38.6308 16.303 38.3706 16.4481 38.2993 16.697C37.6457 18.983 38.18 21.1114 39.1862 23.1039C40.125 24.9625 41.4788 26.7019 42.5894 28.3449Z" fill="white"/>
</g>
</svg>
