<svg width="49" height="48" viewBox="0 0 49 48" fill="none" xmlns="http://www.w3.org/2000/svg">
<g opacity="0.7">
<path fill-rule="evenodd" clip-rule="evenodd" d="M2.34846 25.3789C15.7421 34.3921 31.1254 29.0022 42.4948 19.1154C42.6906 18.9459 42.9873 18.966 43.157 19.1616C43.3264 19.3571 43.3063 19.6539 43.1108 19.8234C31.4233 29.9877 15.5928 35.4226 1.82402 26.1566C1.60923 26.0127 1.55253 25.7212 1.69729 25.5056C1.84126 25.2909 2.13279 25.2342 2.34846 25.3789Z" fill="white"/>
<path fill-rule="evenodd" clip-rule="evenodd" d="M42.5894 19.6551C41.7817 19.8203 40.7703 20.0389 40.6548 20.0604C37.5247 20.6419 34.4722 20.7069 31.3044 20.3281C31.0473 20.2977 30.8634 20.0634 30.8939 19.8063C30.9243 19.5493 31.1586 19.3654 31.4158 19.3958C34.4874 19.7641 37.4478 19.702 40.484 19.1375C40.661 19.1047 42.9344 18.6119 43.4016 18.5468C43.5932 18.5192 43.7101 18.563 43.7365 18.576C43.8805 18.6395 43.9473 18.7402 43.9835 18.8274C44.0235 18.926 44.0496 19.1049 43.9525 19.3174C43.8499 19.5394 43.5257 19.9455 43.452 20.0546C42.3466 21.7042 40.9689 23.4489 40.0249 25.3186C39.1243 27.1016 38.6176 29.0006 39.2023 31.0452C39.2739 31.294 39.1285 31.5541 38.8798 31.6255C38.6308 31.697 38.3706 31.5519 38.2993 31.303C37.6457 29.017 38.18 26.8886 39.1863 24.8961C40.125 23.0375 41.4788 21.2981 42.5894 19.6551Z" fill="white"/>
</g>
</svg>
